<svg xmlns="http://www.w3.org/2000/svg" width="213" height="40" viewBox="0 0 213 40">
  <style>
    path { fill: #392EAF; }
    @media (prefers-color-scheme: dark) {
      path { fill: #FFF; }
    }
  </style>
  <path fill-rule="evenodd" d="M140.092863 3.08144241C140.084766 3.11904747 140.060199 3.13867348 140.020123 3.13181124 139.785435 3.09173577 139.5889 2.97905781 139.422148 2.81203092 139.374387 2.76399525 139.370681 2.63800456 139.414462 2.57926379 139.506828 2.45519452 139.628976 2.37353388 139.781729 2.34951605 139.848293 2.33908545 139.910739 2.36900481 139.95452 2.42596139 140.081609 2.59147858 140.120861 2.78197432 140.114136 2.98427311 140.106862 3.01762359 140.099725 3.04960162 140.092863 3.08144241L140.092863 3.08144241zM140.501029 2.71637132C140.501029 2.50130876 140.508166 2.28610896 140.498833 2.07145814 140.490873 1.8941379 140.4158 1.73891407 140.293378 1.60853153 140.177818 1.48528573 139.961932 1.42599599 139.818648 1.49022654 139.68154 1.5517122 139.545119 1.61813867 139.417482 1.69719166 139.22877 1.81398696 139.091525 1.98224904 139.028118 2.19511568 138.967044 2.40084559 138.911872 2.61083009 138.883325 2.82287326 138.840916 3.13839899 138.923263 3.42592678 139.177852 3.63440159 139.326488 3.7561377 139.491868 3.85920852 139.657248 3.95802475 139.748241 4.01251093 139.855567 4.03927366 139.954246 4.08181954 140.092177 4.14124652 140.118253 4.26339437 140.022731 4.3965218 139.821256 4.67746184 139.599605 4.93959935 139.327174 5.1561716 138.788351 5.58437528 138.25694 6.02232334 137.712352 6.44311581 137.048225 6.956274 136.381353 7.46696179 135.671111 7.91643842 135.213125 8.20629937 134.853132 8.6135046 134.42685 8.94124511 134.344366 9.0046522 134.290566 9.10621333 134.226335 9.19240304 134.21467 9.20804895 134.211513 9.23453719 134.214258 9.25471217 134.216316 9.27173052 134.229492 9.29094479 134.243491 9.30151264 134.258862 9.31317844 134.281919 9.32443251 134.299487 9.32182486 134.454024 9.29904223 134.578505 9.21148007 134.694614 9.11787913 135.198715 8.71218359 135.730812 8.34821046 136.288575 8.02088169 136.307103 8.01003935 136.323298 7.99535416 136.341277 7.98355111 136.773736 7.70192484 137.197822 7.4062996 137.64126 7.14306414 138.089227 6.87722102 138.462258 6.51832594 138.87509 6.20925072 139.434225 5.79079142 139.886721 5.27200618 140.234088 4.6693644 140.470423 4.25941427 140.469188 4.28700047 140.875433 4.47735896 140.932801 4.50425894 140.979601 4.55284359 141.034362 4.5866058 141.090084 4.62105424 141.170372 4.5997813 141.20482 4.54872625 141.460644 4.16910721 141.358672 3.94745691 141.053714 3.72690456 141.036421 3.71427804 141.018716 3.70123979 140.999365 3.69218163 140.411957 3.41728036 140.512009 3.34893246 140.525596 2.84551865 140.526694 2.80256103 140.525733 2.75946618 140.525733 2.71637132 140.517498 2.71637132 140.509264 2.71637132 140.501029 2.71637132L140.501029 2.71637132z" transform="translate(0 3)"/>
</svg>
